# xmcd
#
# Track frame offsets:
#	150
#	15675
#	28875
#	44550
#	58050
#	69075
#	85725
#	103500
#	116925
#	134025
#	147825
#	162525
#	180600
#	196275
#	212625
#	230025
#
# Disc length: 3260 seconds
#
# Revision: 2
# Processed by: cddbd v1.5.2PL0 Copyright (c) Steve Scherf et al.
# Submitted via: EasyCDDAExtractor 15.2.5.1
#
DISCID=ef0cba10
DTITLE=陳思安 (3) - 餐廳小唱(台灣版) 
DYEAR=1980
DGENRE=Alternative
TTITLE0=楓林小橋
TTITLE1=祈禱
TTITLE2=失去節奏的探戈
TTITLE3=問彩虹
TTITLE4=雨中的回憶
TTITLE5=背影
TTITLE6=往事難追憶
TTITLE7=何日再吻君
TTITLE8=人兒不能留
TTITLE9=給訴你爰的時候
TTITLE10=你曾經愛過我
TTITLE11=誰能禁止我的愛
TTITLE12=不如歸去
TTITLE13=我怎麼哭
TTITLE14=午夜夢迥時
TTITLE15=到底愛我不愛
EXTD=
EXTT0=
EXTT1=
EXTT2=
EXTT3=
EXTT4=
EXTT5=
EXTT6=
EXTT7=
EXTT8=
EXTT9=
EXTT10=
EXTT11=
EXTT12=
EXTT13=
EXTT14=
EXTT15=
PLAYORDER=
